<svg width="116" height="47" viewBox="0 0 116 47" fill="none" xmlns="http://www.w3.org/2000/svg">
<rect y="7" width="32" height="32" rx="8" fill="white"/>
<path d="M47.349 32V18.7H49.363V24.4H55.804V18.7H57.818V32H55.804V26.053H49.363V32H47.349ZM64.8548 32.228C63.9302 32.228 63.1068 32.0253 62.3848 31.62C61.6755 31.202 61.1182 30.6257 60.7128 29.891C60.3075 29.1563 60.1048 28.3013 60.1048 27.326C60.1048 26.338 60.3012 25.4703 60.6938 24.723C61.0992 23.9757 61.6565 23.393 62.3658 22.975C63.0878 22.557 63.9238 22.348 64.8738 22.348C65.7985 22.348 66.6028 22.557 67.2868 22.975C67.9708 23.3803 68.5028 23.925 68.8828 24.609C69.2628 25.293 69.4528 26.0467 69.4528 26.87C69.4528 26.9967 69.4465 27.136 69.4338 27.288C69.4338 27.4273 69.4275 27.5857 69.4148 27.763H62.0808C62.1442 28.675 62.4418 29.3717 62.9738 29.853C63.5185 30.3217 64.1455 30.556 64.8548 30.556C65.4248 30.556 65.8998 30.4293 66.2798 30.176C66.6725 29.91 66.9638 29.5553 67.1538 29.112H69.1678C68.9145 29.9987 68.4078 30.7397 67.6478 31.335C66.9005 31.9303 65.9695 32.228 64.8548 32.228ZM64.8548 24.001C64.1835 24.001 63.5882 24.2037 63.0688 24.609C62.5495 25.0017 62.2328 25.597 62.1188 26.395H67.4388C67.4008 25.6603 67.1412 25.0777 66.6598 24.647C66.1785 24.2163 65.5768 24.001 64.8548 24.001ZM71.5425 32V22.576H73.3475L73.5185 24.362C73.8479 23.7413 74.3039 23.2537 74.8865 22.899C75.4819 22.5317 76.1975 22.348 77.0335 22.348V24.457H76.4825C75.9252 24.457 75.4249 24.552 74.9815 24.742C74.5509 24.9193 74.2025 25.2297 73.9365 25.673C73.6832 26.1037 73.5565 26.7053 73.5565 27.478V32H71.5425ZM84.0613 32.228C83.3266 32.228 82.6743 32.0823 82.1043 31.791C81.547 31.4997 81.1036 31.088 80.7743 30.556L80.5653 32H78.7603V18.32H80.7743V24.039C81.0783 23.5957 81.4963 23.203 82.0283 22.861C82.5603 22.519 83.2443 22.348 84.0803 22.348C84.9923 22.348 85.7966 22.5633 86.4933 22.994C87.19 23.4247 87.7346 24.0137 88.1273 24.761C88.5326 25.5083 88.7353 26.357 88.7353 27.307C88.7353 28.257 88.5326 29.1057 88.1273 29.853C87.7346 30.5877 87.19 31.1703 86.4933 31.601C85.7966 32.019 84.986 32.228 84.0613 32.228ZM83.7193 30.48C84.5806 30.48 85.29 30.1887 85.8473 29.606C86.4046 29.0107 86.6833 28.238 86.6833 27.288C86.6833 26.6673 86.5566 26.1163 86.3033 25.635C86.05 25.1537 85.7016 24.78 85.2583 24.514C84.815 24.2353 84.302 24.096 83.7193 24.096C82.858 24.096 82.1486 24.3937 81.5913 24.989C81.0466 25.5843 80.7743 26.3507 80.7743 27.288C80.7743 28.238 81.0466 29.0107 81.5913 29.606C82.1486 30.1887 82.858 30.48 83.7193 30.48ZM95.3216 32.228C94.397 32.228 93.5736 32.0253 92.8516 31.62C92.1423 31.202 91.585 30.6257 91.1796 29.891C90.7743 29.1563 90.5716 28.3013 90.5716 27.326C90.5716 26.338 90.768 25.4703 91.1606 24.723C91.566 23.9757 92.1233 23.393 92.8326 22.975C93.5546 22.557 94.3906 22.348 95.3406 22.348C96.2653 22.348 97.0696 22.557 97.7536 22.975C98.4376 23.3803 98.9696 23.925 99.3496 24.609C99.7296 25.293 99.9196 26.0467 99.9196 26.87C99.9196 26.9967 99.9133 27.136 99.9006 27.288C99.9006 27.4273 99.8943 27.5857 99.8816 27.763H92.5476C92.611 28.675 92.9086 29.3717 93.4406 29.853C93.9853 30.3217 94.6123 30.556 95.3216 30.556C95.8916 30.556 96.3666 30.4293 96.7466 30.176C97.1393 29.91 97.4306 29.5553 97.6206 29.112H99.6346C99.3813 29.9987 98.8746 30.7397 98.1146 31.335C97.3673 31.9303 96.4363 32.228 95.3216 32.228ZM95.3216 24.001C94.6503 24.001 94.055 24.2037 93.5356 24.609C93.0163 25.0017 92.6996 25.597 92.5856 26.395H97.9056C97.8676 25.6603 97.608 25.0777 97.1266 24.647C96.6453 24.2163 96.0436 24.001 95.3216 24.001ZM102.009 32V22.576H103.814L103.985 24.362C104.315 23.7413 104.771 23.2537 105.353 22.899C105.949 22.5317 106.664 22.348 107.5 22.348V24.457H106.949C106.392 24.457 105.892 24.552 105.448 24.742C105.018 24.9193 104.669 25.2297 104.403 25.673C104.15 26.1037 104.023 26.7053 104.023 27.478V32H102.009ZM113.179 32C112.254 32 111.52 31.7783 110.975 31.335C110.43 30.879 110.158 30.0747 110.158 28.922V24.267H108.543V22.576H110.158L110.405 20.182H112.172V22.576H114.832V24.267H112.172V28.922C112.172 29.4413 112.28 29.8023 112.495 30.005C112.723 30.195 113.109 30.29 113.654 30.29H114.737V32H113.179Z" fill="#303031"/>
<path d="M24.817 32.876C24.5897 32.938 24.228 33 23.732 33.062C23.2567 33.124 22.7813 33.155 22.306 33.155C21.8307 33.155 21.407 33.1137 21.035 33.031C20.6837 32.969 20.384 32.845 20.136 32.659C19.888 32.473 19.702 32.2147 19.578 31.884C19.454 31.5533 19.392 31.1193 19.392 30.582V25.746H13.44V32.876C13.2127 32.938 12.851 33 12.355 33.062C11.8797 33.124 11.4043 33.155 10.929 33.155C10.4537 33.155 10.03 33.1137 9.658 33.031C9.30667 32.969 9.007 32.845 8.759 32.659C8.511 32.473 8.325 32.2147 8.201 31.884C8.077 31.5533 8.015 31.1193 8.015 30.582V14.214C8.24233 14.1727 8.604 14.121 9.1 14.059C9.596 13.9763 10.0713 13.935 10.526 13.935C11.0013 13.935 11.4147 13.9763 11.766 14.059C12.138 14.121 12.448 14.245 12.696 14.431C12.944 14.617 13.13 14.8753 13.254 15.206C13.378 15.5367 13.44 15.9707 13.44 16.508V21.468H19.392V14.214C19.6193 14.1727 19.981 14.121 20.477 14.059C20.973 13.9763 21.4483 13.935 21.903 13.935C22.3783 13.935 22.7917 13.9763 23.143 14.059C23.515 14.121 23.825 14.245 24.073 14.431C24.321 14.617 24.507 14.8753 24.631 15.206C24.755 15.5367 24.817 15.9707 24.817 16.508V32.876Z" fill="#4E5CA6"/>
</svg>
